<?xml version="1.0" encoding="UTF-8" standalone="no"?>
<!-- Created with Inkscape (http://www.inkscape.org/) -->

<svg
   width="300mm"
   height="300mm"
   viewBox="0 0 300.00002 300"
   version="1.1"
   id="svg21"
   xml:space="preserve"
   inkscape:version="1.2.2 (b0a8486541, 2022-12-01)"
   sodipodi:docname="logo.svg"
   inkscape:export-filename="logo.png"
   inkscape:export-xdpi="96"
   inkscape:export-ydpi="96"
   xmlns:inkscape="http://www.inkscape.org/namespaces/inkscape"
   xmlns:sodipodi="http://sodipodi.sourceforge.net/DTD/sodipodi-0.dtd"
   xmlns="http://www.w3.org/2000/svg"
   xmlns:svg="http://www.w3.org/2000/svg"><sodipodi:namedview
     id="namedview23"
     pagecolor="#ffffff"
     bordercolor="#000000"
     borderopacity="0.25"
     inkscape:showpageshadow="2"
     inkscape:pageopacity="0.0"
     inkscape:pagecheckerboard="0"
     inkscape:deskcolor="#d1d1d1"
     inkscape:document-units="px"
     showgrid="false"
     inkscape:zoom="0.52724989"
     inkscape:cx="489.33154"
     inkscape:cy="593.64641"
     inkscape:window-width="1920"
     inkscape:window-height="1003"
     inkscape:window-x="0"
     inkscape:window-y="0"
     inkscape:window-maximized="1"
     inkscape:current-layer="svg21" /><defs
     id="defs18" /><path
     id="path16375"
     style="display:inline;fill:#000000;stroke-width:1.34092"
     d="m 107.47827,38.106059 c -5.70666,0.10696 -8.237994,6.70431 -12.563024,25.14561 -10.47855,44.683131 -3.28241,76.349001 20.114274,88.540321 2.46502,1.28462 2.33691,1.84961 -2.43811,10.93502 -9.06612,17.24932 -9.48878,27.35168 -2.83588,67.06575 1.86772,11.14921 3.73902,21.30442 4.16494,22.55844 1.03863,3.0597 22.39595,3.4359 23.63605,0.41956 0.4194,-1.02283 -0.90751,-7.87704 -2.94593,-15.23145 -4.62563,-16.65831 -6.17914,-25.56165 -4.63922,-26.45125 0.652,-0.37663 1.18604,0.23568 1.18604,1.36119 0,1.1254 2.71777,7.13962 6.04445,13.36421 3.32668,6.22458 6.79984,13.48254 7.72051,16.13343 1.67293,4.81974 1.67553,4.82481 11.57255,-13.3008 12.97107,-23.75581 15.03538,-21.46596 5.88356,6.5357 -5.65978,17.31837 -5.06857,18.79995 7.42434,18.79995 11.4939,0 19.57006,-12.62069 22.1715,-34.62485 1.08449,-9.16897 1.17623,-9.33497 2.88683,-5.56248 2.4406,5.38366 1.06649,22.66054 -2.56509,32.2907 -1.58741,4.21144 -2.88681,7.94317 -2.88681,8.29227 0,1.45764 47.06538,-1.05954 55.48358,-2.96722 33.49293,-7.5907 45.28285,-40.21889 22.29846,-61.70122 -14.89021,-13.91739 -38.94171,-16.23066 -38.94171,-3.74261 0,4.49332 3.18237,6.41861 10.65809,6.46455 21.12879,0.10742 32.27774,21.46214 18.9461,36.27065 -10.60505,11.7799 -40.3755,15.84477 -37.7228,5.15095 3.51723,-14.17789 -1.3351,-31.26566 -11.6826,-41.14463 -9.95992,-9.5097 -13.55478,-25.77723 -5.95979,-26.95774 25.18695,-3.91777 49.54595,-39.91772 52.96947,-78.285721 1.16641,-13.0687 -15.84219,-16.08045 -44.26669,-7.84117 -9.42716,2.73217 -9.4288,2.73372 -17.74396,-1.15604 -23.79499,-11.11337 -59.56369,-10.3397 -79.04348,1.7091 -7.65302,4.73353 -9.08922,-1.50514 -4.30059,-18.61787 2.94662,-10.53035 4.02157,-10.77134 12.80857,-2.85653 6.29296,5.66956 7.60957,6.32624 10.58194,5.26976 1.86654,-0.66453 5.26548,-1.20349 7.55975,-1.20349 7.78012,0 -8.68456,-14.50277 -25.11749,-22.12312 -3.5054,-1.62565 -6.22397,-2.58092 -8.45701,-2.53989 z m 27.14919,49.53181 c 4.4485,0.0614 9.00744,2.15308 9.00744,5.37263 0,0.47163 -0.46034,0.76252 -1.03206,0.62471 -0.57172,-0.13755 -4.70016,-0.45933 -9.16817,-0.71962 -7.95097,-0.46241 -8.07235,-0.52058 -5.68044,-2.99079 1.57429,-1.62578 4.20492,-2.32276 6.87405,-2.28679 z m 101.07949,1.05189 c 6.27347,0 6.49317,4.53174 0.89775,18.293561 -3.12291,7.67476 -8.2652,14.77946 -8.3471,11.52852 -0.0655,-2.79926 -7.9569,-16.96778 -11.30159,-20.295411 -4.38644,-4.36394 5.77251,-9.52667 18.75143,-9.52667 z m -75.27627,6.43283 c 1.80527,-0.0299 4.33664,0.67216 6.5862,2.1442 3.19271,2.09035 3.19597,2.08697 -1.10903,4.533901 -5.24256,2.97961 -5.14034,2.97978 -6.00205,0.18218 -0.38332,-1.24793 -1.1451,-3.294001 -1.69324,-4.541891 -0.66181,-1.50357 0.41283,-2.28186 2.21812,-2.31832 z m 34.34496,9.463261 c 4.82169,-0.15941 11.2762,3.65228 11.2762,8.03119 0,2.63311 -1.13362,2.41664 -6.78951,-1.34589 -2.5908,-1.72129 -5.94421,-3.13331 -7.4497,-3.13331 -2.27708,0 -2.45203,-0.32921 -1.01569,-1.94655 0.94363,-1.06262 2.37162,-1.55307 3.97887,-1.60618 z m -34.12495,7.68301 c 0.92884,-0.0614 1.01569,0.86665 1.6087,3.07792 0.86497,3.22109 8.46686,7.58011 10.83603,6.21126 3.1578,-1.82422 -5.97498,11.21292 -12.6223,18.0166 -7.1542,7.32241 -14.1342,3.98617 -14.99264,-7.1687 -0.28666,-3.71841 -0.75026,-9.27463 -1.02384,-12.34336 -0.49311,-5.54323 -0.46527,-5.57628 3.49638,-4.76327 2.47434,0.50834 5.65065,0.046 8.37251,-1.22643 2.37718,-1.10855 3.60387,-1.75668 4.32582,-1.80402 z m 103.59382,175.98061 c 0.004,0.0766 0.0137,0.12237 0.0176,0.19758 0.0493,-0.0115 0.0982,-0.0299 0.14742,-0.046 z m -12.85933,1.00445 c 0.004,0.18079 0.0176,0.35354 0.0655,0.52976 0.0176,0.0614 0.0982,0.21875 0.0982,0.15779 -0.0493,-0.26935 -0.0982,-0.49302 -0.14742,-0.68902 z m -6.60309,1.15601 -0.008,0.007 c 0.0137,0.005 0.0176,0.0115 0.0317,0.0161 -0.008,-0.005 -0.0176,-0.0161 -0.0317,-0.0299 z M 67.833746,302.03335 c -0.13119,0.20541 -0.30637,0.49914 -0.49146,0.81455 0.25888,-0.0915 0.50947,-0.19759 0.76178,-0.30002 0.0317,-0.0161 0.0981,-0.0614 0.13119,-0.13755 -0.14742,-0.12283 -0.27366,-0.24803 -0.39811,-0.37974 z m 210.294324,0.39504 c -0.53405,0.24354 -1.07957,0.46243 -1.63328,0.6645 0.13119,0.2832 0.28666,0.5604 0.47344,0.82223 0.50454,0.70892 0.93377,-0.23119 1.15984,-1.48827 z"
     inkscape:label="path16375" /><g
     id="g35446"
     transform="translate(-536.51376,-254.61203)"><path
       style="display:inline;fill:#000000;stroke-width:0.422027"
       d="m 569.90076,514.58394 c -7.44303,-8.05827 -8.65004,-12.18025 -4.12225,-14.07753 3.36329,-1.4093 91.91479,-0.34122 93.2064,1.12424 2.28016,2.58715 0.81651,5.96528 -5.61256,12.95329 -1.6986,1.84637 -81.76618,1.84637 -83.47159,0 z m 94.71618,-15.93442 c -1.0717,-3.24707 -1.2053,-34.27479 -0.1552,-35.96072 3.7059,-5.94734 -1.39969,-18.96797 -11.70645,-29.85366 -5.22759,-5.52119 -7.29912,-5.04064 21.72815,-5.04064 h 25.1247 v 34.84325 c 0,34.27669 -0.016,34.85707 -0.8382,35.69309 -1.0425,1.05676 -33.8089,1.36251 -34.1535,0.31868 z m -98.44493,-3.82426 c 1.71662,-9.35004 14.32038,-12.72223 21.71707,-5.81049 1.92866,1.8022 1.93619,1.80484 2.56476,0.89509 3.89978,-5.64423 14.39885,-6.02472 19.6398,-0.71174 1.566,1.58754 1.566,1.58754 3.31043,-0.14341 5.19314,-5.1532 14.86026,-4.85296 19.0858,0.59275 0.88909,1.14584 0.88909,1.14584 2.8079,-0.64715 7.40947,-6.9237 19.79456,-3.60761 21.7555,5.82502 0.49555,2.3837 -6.38518,2.12199 -7.38007,-0.2807 -1.93575,-4.6741 -9.59845,-4.38703 -10.63523,0.39842 -0.34155,1.57643 -10.46943,2.05754 -10.93974,0.51966 -1.6951,-5.54284 -11.06354,-5.58428 -11.06354,-0.049 0,0.73279 -0.41077,0.79254 -5.44904,0.79254 -5.03828,0 -5.44904,-0.0598 -5.44904,-0.79254 0,-5.53534 -9.36843,-5.49391 -11.06353,0.049 -0.54958,1.79709 -10.41798,0.98871 -11.20765,-0.91808 -1.84408,-4.45289 -8.60146,-4.44937 -10.32762,0.005 -0.93195,2.40511 -7.80398,2.66199 -7.3658,0.27533 z m 34.24504,-13.49113 c -30.75119,-0.20742 -31.52001,-0.2326 -32.43775,-1.0623 -3.1208,-2.82137 -2.61046,-10.08242 0.83559,-11.88893 2.6366,-1.38217 86.41558,-0.90408 88.0646,0.50256 3.56496,3.04092 3.11694,9.19392 -0.86847,11.92912 -1.39285,0.95581 -1.54857,0.96619 -12.7531,0.84982 -6.23874,-0.0647 -25.51712,-0.21342 -42.84087,-0.33027 z m -36.61533,-21.6708 c -2.2304,-2.26106 2.39071,-13.92576 8.60645,-21.7246 16.91724,-21.2259 56.3714,-22.71643 76.02443,-2.87212 7.39813,7.47006 14.0238,22.97123 10.58843,24.77216 -2.25117,1.18016 -94.04892,1.01103 -95.21931,-0.17544 z m 81.25824,-37.35522 c -0.97049,-0.79662 -0.98966,-0.95315 -0.98966,-8.11098 0,-9.85615 -1.59356,-8.92327 15.24381,-8.92327 h 13.26453 l 1.5368,-8.77812 c 1.9771,-11.29346 0.955,-10.09805 12.7358,-14.89513 11.583,-4.71644 12.8903,-4.8339 14.6832,-1.31927 2.1995,4.31169 0.2595,6.41895 -9.4728,10.28932 -8.8369,3.51432 -7.7931,2.54833 -8.7923,8.13756 -0.4573,2.55943 -0.9328,5.08375 -1.0565,5.60958 -0.2248,0.95606 -0.2248,0.95606 10.2318,0.95606 13.1619,0 12.1939,-0.71439 12.1939,8.9999 0,9.9484 3.7765,8.84665 -30.3233,8.84665 -27.20578,0 -28.30285,-0.0305 -29.25528,-0.8123 z"
       id="path16433" /><path
       style="display:inline;fill:#deb81a;fill-opacity:1;stroke:none;stroke-width:1.341;stroke-dasharray:none;stroke-opacity:0"
       d="m 2199.4412,1739.286 c -33.5616,-0.5716 -62.8316,-1.5665 -65.0445,-2.2108 -3.6307,-1.0572 -4.0629,-1.7773 -4.4291,-7.3791 -1.1465,-17.539 19.7863,-58.8018 41.7751,-82.3471 35.9359,-38.4799 98.0848,-59.8271 158.2187,-54.3459 72.3127,6.5914 123.7029,40.0148 151.7224,98.6782 10.4485,21.8756 14.439,40.9334 9.4396,45.0825 -4.0916,3.3958 -160.8208,4.751 -291.6822,2.5222 z"
       id="path18353"
       transform="scale(0.26458334)" /><path
       style="display:inline;fill:#deb81a;fill-opacity:1;stroke:none;stroke-width:1.79845;stroke-dasharray:none;stroke-opacity:0"
       d="m 2230.287,1948.5298 c -29.1359,-0.5592 -57.9708,-1.6009 -64.0776,-2.3148 -10.9841,-1.2842 -11.164,-1.3666 -16.764,-7.6809 -13.2626,-14.9542 -19.7426,-26.103 -19.7426,-33.9672 0,-6.768 5.3034,-11.6096 14.4235,-13.1674 17.429,-2.9772 294.3647,-0.045 333.4976,3.5307 14.3044,1.3071 16.0425,2.7469 15.1494,12.5494 -0.6343,6.9614 -7.4775,18.2835 -18.6753,30.8986 -5.6846,6.404 -5.9053,6.5076 -16.4907,7.7353 -10.9982,1.2755 -127.4825,3.95 -157.5819,3.618 -9.2202,-0.1016 -40.6025,-0.6424 -69.7384,-1.2017 z"
       id="path26873"
       transform="scale(0.26458334)" /><path
       style="display:inline;fill:#502d16;fill-opacity:1;stroke:none;stroke-width:1.79845;stroke-dasharray:none;stroke-opacity:0"
       d="m 2254.4272,1818.4919 c -64.4647,-0.6038 -101.1596,-1.4356 -103.4256,-2.3443 -12.5832,-5.046 -15.4103,-29.7719 -4.7358,-41.4198 l 4.2365,-4.6228 36.8748,-1.4026 c 41.851,-1.592 215.1176,-0.528 262.8519,1.6141 l 30.1732,1.354 3.8627,3.8627 c 11.007,11.0069 7.0022,34.3351 -7.1904,41.8846 -5.3008,2.8196 -25.7687,2.9184 -222.6473,1.0741 z"
       id="path26944"
       transform="scale(0.26458334)" /><path
       style="fill:#00ff00;fill-opacity:1;stroke:none;stroke-width:1.79845;stroke-dasharray:none;stroke-opacity:0"
       d="m 2144.9277,1874.9512 c -4.4945,-1.8957 -4.8628,-3.6293 -2.3672,-11.1428 1.6574,-4.9901 4.4776,-9.151 9.8308,-14.5042 9.908,-9.908 19.3911,-13.6927 34.3092,-13.6927 13.6823,0 22.8012,3.3857 33.5125,12.4423 4.3704,3.6954 8.3025,6.7189 8.738,6.7189 0.4354,0 3.1773,-2.4662 6.0931,-5.4804 8.7034,-8.9973 16.6766,-12.3494 30.9791,-13.0243 17.025,-0.8034 30.0938,3.7399 39.2652,13.6503 4.4195,4.7756 7.2489,4.4312 14.6132,-1.7784 12.1419,-10.238 27.6746,-14.7072 42.0533,-12.0998 10.7993,1.9583 17.7252,5.5008 25.4991,13.0426 7.1287,6.9158 5.356,7.2601 19.1907,-3.7269 9.0255,-7.1677 17.7197,-10.0159 30.1752,-9.8855 18.316,0.1918 34.6059,9.8404 42.1402,24.9599 4.9329,9.899 4.6242,12.6611 -1.6242,14.5332 -9.442,2.8289 -17.7176,-0.9723 -24.9246,-11.4485 -3.2409,-4.711 -9.7951,-7.4011 -18.0322,-7.4011 -7.9702,0 -14.4748,3.9152 -18.3126,11.0224 -3.2677,6.0517 -8.8702,7.7533 -25.5268,7.7533 -11.9153,0 -16.7526,-1.3561 -16.7526,-4.6964 0,-1.0559 -2.0312,-3.9511 -4.5139,-6.4337 -7.9589,-7.9589 -23.5557,-9.8937 -31.5803,-3.9175 -1.9079,1.4209 -4.4538,5.237 -5.6576,8.4802 l -2.1888,5.8968 -15.9164,0.3884 c -8.754,0.2137 -17.1338,0.087 -18.6218,-0.2825 -1.6938,-0.42 -3.449,-2.7765 -4.6939,-6.3019 -2.8995,-8.2108 -7.7071,-11.2385 -17.8451,-11.2385 -10.8151,0 -17.7861,3.5695 -22.4096,11.475 -4.2853,7.3273 -9.3715,8.7264 -24.4463,6.7245 -12.3693,-1.6425 -17.6513,-4.0951 -20.4421,-9.4918 -4.2914,-8.2987 -19.0873,-11.9094 -28.8041,-7.0293 -2.5678,1.2897 -6.3797,4.91 -8.4709,8.0451 -2.0912,3.1351 -4.8182,6.2439 -6.0602,6.9085 -3.6027,1.9279 -14.0641,2.861 -17.2084,1.5348 z"
       id="path27015"
       transform="scale(0.26458334)" /><path
       style="fill:#3db8c2;fill-opacity:1;stroke:none;stroke-width:1.79845;stroke-dasharray:none;stroke-opacity:0"
       d="m 2529.8014,1885.804 c -8.976,-0.4708 -16.6958,-1.2332 -17.155,-1.6941 -1.9502,-1.9572 -3.6376,-53.123 -2.98,-90.3583 0.6582,-37.2701 0.9263,-40.777 3.6391,-47.6099 4.0886,-10.2983 3.2147,-28.4979 -2.0608,-42.9159 -8.15,-22.2742 -23.1284,-45.6534 -42.8671,-66.9098 -8.7142,-9.3842 -12.498,-14.378 -11.5857,-15.2903 2.9592,-2.9591 17.5438,-3.4749 100.4318,-3.5518 l 86.2051,-0.08 -0.3733,131.5384 c -0.3517,123.9493 -0.5099,131.6385 -2.7424,133.2705 -1.3169,0.9628 -8.1671,2.0958 -15.4229,2.5511 -21.4732,1.3472 -77.6065,1.967 -95.0888,1.05 z"
       id="path27017"
       transform="scale(0.26458334)" /><path
       style="fill:#ff3d00;fill-opacity:1;stroke:none;stroke-width:1.79845;stroke-dasharray:none;stroke-opacity:0"
       d="m 2446.3977,1597.4049 c -10.4136,-1.3045 -10.8739,-2.3575 -11.1599,-25.5302 -0.4026,-32.6216 -0.1045,-34.3803 6.2807,-37.0482 3.7079,-1.5492 13.9769,-1.9233 52.8027,-1.9233 h 48.1995 l 2.2843,-13.0759 c 9.7913,-56.0491 10.1167,-57.0253 21.1169,-63.3485 8.8641,-5.0954 58.4617,-24.8773 67.2832,-26.8358 9.2754,-2.0593 13.1802,-0.172 17.4749,8.4462 4.0151,8.0573 4.2084,11.0851 1.0167,15.9247 -4.7346,7.1789 -13.6473,12.1856 -42.4557,23.8491 -20.8947,8.4596 -23.0495,9.789 -24.7211,15.2517 -2.3456,7.6653 -7.2127,37.2228 -6.2825,38.1529 0.5001,0.5001 17.3171,1.1067 37.371,1.3479 20.6429,0.2483 38.0119,1.0376 40.0347,1.8193 1.9652,0.7594 4.207,2.9886 4.9817,4.9538 0.7748,1.9652 1.5809,13.9194 1.7915,26.5649 0.4302,25.8383 0.055,27.0279 -9.5414,30.2449 -5.33,1.7867 -193.0866,2.8839 -206.4772,1.2065 z"
       id="path27019"
       transform="scale(0.26458334)"
       inkscape:label="path27019" /></g></svg>
